<?xml version="1.0" encoding="utf-8" ?>
<svg baseProfile="full" height="3508" version="1.1" width="2480" xmlns="http://www.w3.org/2000/svg" xmlns:ev="http://www.w3.org/2001/xml-events" xmlns:xlink="http://www.w3.org/1999/xlink"><defs /><line stroke="rgb(0,0,0)" stroke-width="2" x1="2172" x2="2172" y1="280" y2="3360" /><line stroke="rgb(0,0,0)" stroke-width="2" x1="1852" x2="1852" y1="280" y2="3360" /><line stroke="rgb(0,0,0)" stroke-width="2" x1="1532" x2="1532" y1="280" y2="3360" /><line stroke="rgb(0,0,0)" stroke-width="2" x1="1212" x2="1212" y1="280" y2="3360" /><line stroke="rgb(0,0,0)" stroke-width="2" x1="892" x2="892" y1="280" y2="3360" /><line stroke="rgb(0,0,0)" stroke-width="2" x1="572" x2="572" y1="280" y2="3360" /><line stroke="rgb(0,0,0)" stroke-width="2" x1="252" x2="252" y1="280" y2="3360" /><line stroke="rgb(0,0,0)" stroke-width="2" x1="2172" x2="252" y1="280" y2="280" /><line stroke="rgb(0,0,0)" stroke-width="2" x1="2172" x2="252" y1="720" y2="720" /><line stroke="rgb(0,0,0)" stroke-width="2" x1="2172" x2="252" y1="1160" y2="1160" /><line stroke="rgb(0,0,0)" stroke-width="2" x1="2172" x2="252" y1="1600" y2="1600" /><line stroke="rgb(0,0,0)" stroke-width="2" x1="2172" x2="252" y1="2040" y2="2040" /><line stroke="rgb(0,0,0)" stroke-width="2" x1="2172" x2="252" y1="2480" y2="2480" /><line stroke="rgb(0,0,0)" stroke-width="2" x1="2172" x2="252" y1="2920" y2="2920" /><line stroke="rgb(0,0,0)" stroke-width="2" x1="2172" x2="252" y1="3360" y2="3360" /><text fill="rgb(0,0,0)" font-size="68" x="2087.0" y="354.0">ハ</text><text fill="rgb(0,0,0)" font-size="68" x="2087.0" y="546.0">ハ</text><text fill="rgb(0,0,0)" font-size="68" x="2087.0" y="642.0">ツ</text><text fill="rgb(0,0,0)" font-size="68" x="2087.0" y="794.0">ハ</text><text fill="rgb(0,0,0)" font-size="68" x="2087.0" y="842.0">ツ</text><text fill="rgb(0,0,0)" font-size="68" x="2087.0" y="890.0">ヒ</text><text fill="rgb(0,0,0)" font-size="68" x="2087.0" y="938.0">ハ</text><text fill="rgb(0,0,0)" font-size="68" x="2087.0" y="986.0">ハ</text><text fill="rgb(0,0,0)" font-size="68" x="2087.0" y="1234.0">ハ</text><text fill="rgb(0,0,0)" font-size="68" x="2087.0" y="1674.0">ハ</text><line stroke="rgb(0,0,0)" stroke-width="6" x1="2148" x2="2148" y1="306" y2="348" /><line stroke="rgb(0,0,0)" stroke-width="6" x1="2148" x2="2148" y1="498" y2="540" /><line stroke="rgb(0,0,0)" stroke-width="6" x1="2148" x2="2148" y1="594" y2="636" /><line stroke="rgb(0,0,0)" stroke-width="6" x1="2148" x2="2148" y1="498" y2="636" /><line stroke="rgb(0,0,0)" stroke-width="6" x1="2148" x2="2148" y1="746" y2="788" /><line stroke="rgb(0,0,0)" stroke-width="6" x1="2164" x2="2164" y1="746" y2="788" /><line stroke="rgb(0,0,0)" stroke-width="6" x1="2148" x2="2148" y1="794" y2="836" /><line stroke="rgb(0,0,0)" stroke-width="6" x1="2148" x2="2148" y1="746" y2="836" /><line stroke="rgb(0,0,0)" stroke-width="6" x1="2164" x2="2164" y1="794" y2="836" /><line stroke="rgb(0,0,0)" stroke-width="6" x1="2164" x2="2164" y1="754" y2="836" /><line stroke="rgb(0,0,0)" stroke-width="6" x1="2148" x2="2148" y1="842" y2="884" /><line stroke="rgb(0,0,0)" stroke-width="6" x1="2148" x2="2148" y1="794" y2="884" /><line stroke="rgb(0,0,0)" stroke-width="6" x1="2164" x2="2164" y1="842" y2="884" /><line stroke="rgb(0,0,0)" stroke-width="6" x1="2164" x2="2164" y1="802" y2="884" /><line stroke="rgb(0,0,0)" stroke-width="6" x1="2148" x2="2148" y1="890" y2="932" /><line stroke="rgb(0,0,0)" stroke-width="6" x1="2148" x2="2148" y1="842" y2="932" /><line stroke="rgb(0,0,0)" stroke-width="6" x1="2164" x2="2164" y1="890" y2="932" /><line stroke="rgb(0,0,0)" stroke-width="6" x1="2164" x2="2164" y1="850" y2="932" /><line stroke="rgb(0,0,0)" stroke-width="6" x1="2148" x2="2148" y1="938" y2="980" /><line stroke="rgb(0,0,0)" stroke-width="6" x1="2148" x2="2148" y1="1626" y2="1668" /><line stroke="rgb(0,0,0)" stroke-width="6" x1="2152" x2="2176" y1="1642" y2="1660" /><text fill="rgb(0,0,0)" font-size="68" x="2007.0" y="354.0">ハ</text><text fill="rgb(0,0,0)" font-size="68" x="2007.0" y="546.0">ハ</text><text fill="rgb(0,0,0)" font-size="68" x="2007.0" y="794.0">ハ</text><text fill="rgb(0,0,0)" font-size="68" x="2007.0" y="986.0">ハ</text><text fill="rgb(0,0,0)" font-size="68" x="2007.0" y="1234.0">ハ</text><text fill="rgb(0,0,0)" font-size="68" x="2007.0" y="1426.0">ハ</text><text fill="rgb(0,0,0)" font-size="68" x="2007.0" y="1674.0">ハ</text><text fill="rgb(0,0,0)" font-size="68" x="2007.0" y="1866.0">ハ</text><line stroke="rgb(0,0,0)" stroke-width="6" x1="2068" x2="2068" y1="306" y2="348" /><line stroke="rgb(0,0,0)" stroke-width="6" x1="2068" x2="2068" y1="498" y2="540" /><line stroke="rgb(0,0,0)" stroke-width="6" x1="2068" x2="2068" y1="746" y2="788" /><line stroke="rgb(0,0,0)" stroke-width="6" x1="2068" x2="2068" y1="938" y2="980" /><line stroke="rgb(0,0,0)" stroke-width="6" x1="2068" x2="2068" y1="1186" y2="1228" /><line stroke="rgb(0,0,0)" stroke-width="6" x1="2068" x2="2068" y1="1378" y2="1420" /><line stroke="rgb(0,0,0)" stroke-width="6" x1="2068" x2="2068" y1="1626" y2="1668" /><line stroke="rgb(0,0,0)" stroke-width="6" x1="2068" x2="2068" y1="1818" y2="1860" /><text fill="rgb(0,0,0)" font-size="68" x="1927.0" y="354.0">ロ</text><text fill="rgb(0,0,0)" font-size="68" x="1927.0" y="794.0">ツ</text><text fill="rgb(0,0,0)" font-size="68" x="1927.0" y="1234.0">ハ</text><text fill="rgb(0,0,0)" font-size="68" x="1927.0" y="1674.0">ハ</text><text fill="rgb(0,0,0)" font-size="68" x="1927.0" y="2114.0">ツ</text><text fill="rgb(0,0,0)" font-size="68" x="1927.0" y="2554.0">ハ</text><text fill="rgb(0,0,0)" font-size="68" x="1847.0" y="354.0">ハ</text><text fill="rgb(0,0,0)" font-size="68" x="1847.0" y="402.0">ハ</text><text fill="rgb(0,0,0)" font-size="68" x="1847.0" y="450.0">ハ</text><text fill="rgb(0,0,0)" font-size="68" x="1847.0" y="498.0">ハ</text><text fill="rgb(0,0,0)" font-size="68" x="1847.0" y="546.0">ハ</text><text fill="rgb(0,0,0)" font-size="68" x="1847.0" y="594.0">ハ</text><text fill="rgb(0,0,0)" font-size="68" x="1847.0" y="642.0">ハ</text><text fill="rgb(0,0,0)" font-size="68" x="1847.0" y="690.0">ハ</text><text fill="rgb(0,0,0)" font-size="68" x="1847.0" y="794.0">ハ</text><text fill="rgb(0,0,0)" font-size="68" x="1847.0" y="890.0">レ</text><text fill="rgb(0,0,0)" font-size="68" x="1847.0" y="986.0">ハ</text><text fill="rgb(0,0,0)" font-size="68" x="1847.0" y="1234.0">ツ</text><text fill="rgb(0,0,0)" font-size="68" x="1847.0" y="1426.0">ハ</text><text fill="rgb(0,0,0)" font-size="68" x="1847.0" y="1674.0">ハ</text><line stroke="rgb(0,0,0)" stroke-width="6" x1="1908" x2="1908" y1="306" y2="348" /><line stroke="rgb(0,0,0)" stroke-width="6" x1="1924" x2="1924" y1="306" y2="348" /><line stroke="rgb(0,0,0)" stroke-width="6" x1="1908" x2="1908" y1="354" y2="396" /><line stroke="rgb(0,0,0)" stroke-width="6" x1="1908" x2="1908" y1="306" y2="396" /><line stroke="rgb(0,0,0)" stroke-width="6" x1="1924" x2="1924" y1="354" y2="396" /><line stroke="rgb(0,0,0)" stroke-width="6" x1="1924" x2="1924" y1="314" y2="396" /><line stroke="rgb(0,0,0)" stroke-width="6" x1="1908" x2="1908" y1="402" y2="444" /><line stroke="rgb(0,0,0)" stroke-width="6" x1="1908" x2="1908" y1="354" y2="444" /><line stroke="rgb(0,0,0)" stroke-width="6" x1="1924" x2="1924" y1="402" y2="444" /><line stroke="rgb(0,0,0)" stroke-width="6" x1="1924" x2="1924" y1="362" y2="444" /><line stroke="rgb(0,0,0)" stroke-width="6" x1="1908" x2="1908" y1="450" y2="492" /><line stroke="rgb(0,0,0)" stroke-width="6" x1="1908" x2="1908" y1="402" y2="492" /><line stroke="rgb(0,0,0)" stroke-width="6" x1="1924" x2="1924" y1="450" y2="492" /><line stroke="rgb(0,0,0)" stroke-width="6" x1="1924" x2="1924" y1="410" y2="492" /><line stroke="rgb(0,0,0)" stroke-width="6" x1="1908" x2="1908" y1="498" y2="540" /><line stroke="rgb(0,0,0)" stroke-width="6" x1="1908" x2="1908" y1="450" y2="540" /><line stroke="rgb(0,0,0)" stroke-width="6" x1="1924" x2="1924" y1="498" y2="540" /><line stroke="rgb(0,0,0)" stroke-width="6" x1="1924" x2="1924" y1="458" y2="540" /><line stroke="rgb(0,0,0)" stroke-width="6" x1="1908" x2="1908" y1="546" y2="588" /><line stroke="rgb(0,0,0)" stroke-width="6" x1="1908" x2="1908" y1="498" y2="588" /><line stroke="rgb(0,0,0)" stroke-width="6" x1="1924" x2="1924" y1="546" y2="588" /><line stroke="rgb(0,0,0)" stroke-width="6" x1="1924" x2="1924" y1="506" y2="588" /><line stroke="rgb(0,0,0)" stroke-width="6" x1="1908" x2="1908" y1="594" y2="636" /><line stroke="rgb(0,0,0)" stroke-width="6" x1="1908" x2="1908" y1="546" y2="636" /><line stroke="rgb(0,0,0)" stroke-width="6" x1="1924" x2="1924" y1="594" y2="636" /><line stroke="rgb(0,0,0)" stroke-width="6" x1="1924" x2="1924" y1="554" y2="636" /><line stroke="rgb(0,0,0)" stroke-width="6" x1="1908" x2="1908" y1="642" y2="684" /><line stroke="rgb(0,0,0)" stroke-width="6" x1="1908" x2="1908" y1="594" y2="684" /><line stroke="rgb(0,0,0)" stroke-width="6" x1="1924" x2="1924" y1="642" y2="684" /><line stroke="rgb(0,0,0)" stroke-width="6" x1="1924" x2="1924" y1="602" y2="684" /><line stroke="rgb(0,0,0)" stroke-width="6" x1="1908" x2="1908" y1="746" y2="788" /><line stroke="rgb(0,0,0)" stroke-width="6" x1="1908" x2="1908" y1="842" y2="884" /><line stroke="rgb(0,0,0)" stroke-width="6" x1="1908" x2="1908" y1="746" y2="884" /><line stroke="rgb(0,0,0)" stroke-width="6" x1="1908" x2="1908" y1="938" y2="980" /><line stroke="rgb(0,0,0)" stroke-width="6" x1="1908" x2="1908" y1="1186" y2="1228" /><line stroke="rgb(0,0,0)" stroke-width="6" x1="1908" x2="1908" y1="1378" y2="1420" /></svg>