<?xml version="1.0" encoding="UTF-8" standalone="no"?>
<!-- Created with Inkscape (http://www.inkscape.org/) -->

<svg
   xmlns:dc="http://purl.org/dc/elements/1.1/"
   xmlns:cc="http://creativecommons.org/ns#"
   xmlns:rdf="http://www.w3.org/1999/02/22-rdf-syntax-ns#"
   xmlns:svg="http://www.w3.org/2000/svg"
   xmlns="http://www.w3.org/2000/svg"
   xmlns:sodipodi="http://sodipodi.sourceforge.net/DTD/sodipodi-0.dtd"
   xmlns:inkscape="http://www.inkscape.org/namespaces/inkscape"
   width="1000"
   height="1000"
   viewBox="0 0 264.58333 264.58333"
   version="1.1"
   id="svg1056"
   inkscape:version="0.92.5 (2060ec1f9f, 2020-04-08)"
   sodipodi:docname="0.svg">
  <defs
     id="defs1050" />
  <sodipodi:namedview
     id="base"
     pagecolor="#ffffff"
     bordercolor="#666666"
     borderopacity="1.0"
     inkscape:pageopacity="0.0"
     inkscape:pageshadow="2"
     inkscape:zoom="0.53740115"
     inkscape:cx="200.24603"
     inkscape:cy="391.80548"
     inkscape:document-units="mm"
     inkscape:current-layer="layer1"
     showgrid="true"
     fit-margin-top="0"
     fit-margin-left="0"
     fit-margin-right="0"
     fit-margin-bottom="0"
     inkscape:window-width="1718"
     inkscape:window-height="906"
     inkscape:window-x="192"
     inkscape:window-y="35"
     inkscape:window-maximized="0"
     units="px"
     showguides="true"
     inkscape:snap-grids="false" />
  <metadata
     id="metadata1053">
    <rdf:RDF>
      <cc:Work
         rdf:about="">
        <dc:format>image/svg+xml</dc:format>
        <dc:type
           rdf:resource="http://purl.org/dc/dcmitype/StillImage" />
        <dc:title />
      </cc:Work>
    </rdf:RDF>
  </metadata>
  <g
     inkscape:label="Layer 1"
     inkscape:groupmode="layer"
     id="layer1"
     transform="translate(-72.693771,173.07297)">
    <g
       aria-label="メ"
       transform="matrix(13.022405,0,0,11.77143,-695.45716,-1160.1632)"
       style="font-style:normal;font-weight:normal;font-size:9.74167538px;line-height:100;font-family:sans-serif;letter-spacing:0px;word-spacing:0px;fill:#000000;fill-opacity:1;stroke:none;stroke-width:0.07306257"
       id="text36">
      <path
         d="m 69.695568,97.663634 q 0,0.155867 -0.243542,0.331217 h 0.0097 q -0.05845,0.05845 -0.224058,0.340959 v -0.0097 q -0.389667,0.7014 -0.915718,1.480734 0.146126,0.126642 0.311734,0.243536 0.17535,0.10716 0.301992,0.29225 0.136383,0.17535 0.136383,0.3507 0,0.29226 -0.253283,0.29226 -0.1169,0 -0.808559,-0.74037 -0.983909,1.31512 -2.182136,2.12368 -0.808559,0.57476 -1.081325,0.57476 -0.126642,0 -0.126642,-0.0974 0,-0.0779 0.496825,-0.40916 1.120293,-0.75985 2.464644,-2.591279 -0.603984,-0.506567 -1.110551,-0.847526 -0.185092,-0.146125 -0.185092,-0.185091 0,-0.05845 0.05845,-0.08768 h 0.02922 q 0.233801,0 0.750109,0.301991 0.516309,0.301992 0.720884,0.457859 1.061843,-1.597635 1.061843,-2.055493 0,-0.126642 -0.155867,-0.292251 -0.146125,-0.165608 -0.146125,-0.224058 0,-0.107159 0.165608,-0.107159 0.233801,0 0.574759,0.321476 0.350701,0.311733 0.350701,0.535792 z"
         style="font-style:normal;font-variant:normal;font-weight:normal;font-stretch:normal;font-family:UnJamoBatang;-inkscape-font-specification:UnJamoBatang;fill:#000000;stroke-width:0.07306257"
         id="path1098"
         inkscape:connector-curvature="0" />
    </g>
    <g
       aria-label="ロ"
       transform="matrix(11.823234,0,0,12.965346,-695.45716,-1160.1632)"
       style="font-style:normal;font-weight:normal;font-size:21.39214516px;line-height:100;font-family:sans-serif;letter-spacing:0px;word-spacing:0px;fill:#000000;fill-opacity:1;stroke:none;stroke-width:0.16044109"
       id="text40">
      <path
         d="m 87.217993,85.645982 q 0,0.06418 -0.29949,0.427843 -0.29949,0.363666 -0.363667,0.556196 -0.171137,0.59898 -0.513411,2.09643 -0.342275,1.476058 -0.59898,2.267567 v -0.02139 l -0.04279,0.106961 q 1.005431,0.08557 1.005431,0.791509 0,0.513412 -0.705941,0.513412 -0.470627,0 -1.069607,-0.106961 -0.89847,-0.128353 -2.224783,-0.128353 -1.818332,0 -3.679449,0.256706 0,0.984038 -0.59898,0.984038 -0.705941,0 -0.770117,-1.240744 l -0.06418,-2.010862 Q 77.1209,85.92408 76.179646,85.260923 L 75.92294,85.111178 q -0.278098,-0.149745 -0.427843,-0.278098 -0.149745,-0.128352 -0.149745,-0.256705 0,-0.213922 0.385059,-0.213922 1.668587,0 2.010861,0.449235 h 0.385059 q 5.262468,0 6.717133,-0.641764 v 0.02139 l 0.320883,-0.171137 h -0.02139 q 0.149745,-0.08557 0.320882,-0.08557 0.149745,0 0.449235,0.171137 0.29949,0.171138 0.385058,0.235314 0.08557,0.04278 0.320883,0.235314 0.235313,0.171137 0.320882,0.29949 0.10696,0.10696 0.192529,0.320882 0.08557,0.213921 0.08557,0.449235 z m -1.98947,0.192529 q 0,-0.556196 -0.748725,-0.556196 -3.29439,0 -6.674349,0.49202 0.08557,0.342274 0.29949,2.631234 0.149745,1.476058 0.492019,3.166037 2.845155,-0.213921 3.358567,-0.278098 1.925293,-0.192529 2.567057,-0.192529 0.705941,-2.866548 0.705941,-5.262468 z"
         style="font-style:normal;font-variant:normal;font-weight:normal;font-stretch:normal;font-family:UnJamoBatang;-inkscape-font-specification:UnJamoBatang;fill:#000000;stroke-width:0.16044109"
         id="path1095"
         inkscape:connector-curvature="0" />
    </g>
  </g>
</svg>
