<?xml version="1.0" encoding="UTF-8" standalone="no"?>
<!-- Created with Inkscape (http://www.inkscape.org/) -->

<svg
   xmlns:dc="http://purl.org/dc/elements/1.1/"
   xmlns:cc="http://creativecommons.org/ns#"
   xmlns:rdf="http://www.w3.org/1999/02/22-rdf-syntax-ns#"
   xmlns:svg="http://www.w3.org/2000/svg"
   xmlns="http://www.w3.org/2000/svg"
   xmlns:sodipodi="http://sodipodi.sourceforge.net/DTD/sodipodi-0.dtd"
   xmlns:inkscape="http://www.inkscape.org/namespaces/inkscape"
   width="1000"
   height="1000"
   viewBox="0 0 264.58333 264.58333"
   version="1.1"
   id="svg1056"
   inkscape:version="0.92.5 (2060ec1f9f, 2020-04-08)"
   sodipodi:docname="11.svg"
   inkscape:export-filename="/home/aahaavis/ot2021/ot-harjoitustyo/src/graphics/11.png"
   inkscape:export-xdpi="96"
   inkscape:export-ydpi="96">
  <defs
     id="defs1050" />
  <sodipodi:namedview
     id="base"
     pagecolor="#ffffff"
     bordercolor="#666666"
     borderopacity="1.0"
     inkscape:pageopacity="0.0"
     inkscape:pageshadow="2"
     inkscape:zoom="0.54115914"
     inkscape:cx="498.31723"
     inkscape:cy="460.66279"
     inkscape:document-units="mm"
     inkscape:current-layer="layer1"
     showgrid="true"
     fit-margin-top="0"
     fit-margin-left="0"
     fit-margin-right="0"
     fit-margin-bottom="0"
     inkscape:window-width="1718"
     inkscape:window-height="906"
     inkscape:window-x="202"
     inkscape:window-y="119"
     inkscape:window-maximized="0"
     units="px"
     showguides="true"
     inkscape:snap-grids="false"
     inkscape:snap-global="false" />
  <metadata
     id="metadata1053">
    <rdf:RDF>
      <cc:Work
         rdf:about="">
        <dc:format>image/svg+xml</dc:format>
        <dc:type
           rdf:resource="http://purl.org/dc/dcmitype/StillImage" />
        <dc:title />
      </cc:Work>
    </rdf:RDF>
  </metadata>
  <g
     inkscape:label="Layer 1"
     inkscape:groupmode="layer"
     id="layer1"
     transform="translate(-72.693771,173.07297)">
    <g
       id="g109"
       transform="matrix(10.561376,0,0,13.776751,-9.0249847,-1028.2602)">
      <g
         transform="translate(5.5897887,1.8632629)"
         id="g107"
         style="font-style:normal;font-variant:normal;font-weight:normal;font-stretch:normal;font-size:35.27777481px;line-height:100;font-family:UnJamoBatang;-inkscape-font-specification:UnJamoBatang;letter-spacing:0px;word-spacing:0px;fill:#000000;fill-opacity:1;stroke:none;stroke-width:0.26458332"
         aria-label="ハ">
        <path
           sodipodi:nodetypes="ccccscccscccsccsccsscscsscs"
           inkscape:connector-curvature="0"
           id="path105"
           style="font-style:normal;font-variant:normal;font-weight:normal;font-stretch:normal;font-family:UnJamoBatang;-inkscape-font-specification:UnJamoBatang;stroke-width:0.26458332"
           d="M 25.36717,75.148499 C 22.924297,73.280265 20.495151,71.1316 18.415592,69.738665 v 0 c -0.352778,-0.188148 -0.529167,-0.423333 -0.529167,-0.705556 -0.22989,-0.514716 0.493847,-0.647973 0.61144,-0.647973 0.705555,0 2.543448,1.19383 4.519003,2.487349 2.824609,2.301366 3.018857,2.044981 4.162733,2.863178 0.511313,0.786826 -1.685599,1.508711 -1.812431,1.412836 z m -3.434762,-9.303762 c 0,0.141111 -0.188148,0.435093 -0.564444,0.881945 -0.376297,0.423333 -0.823149,0.905462 -1.340556,1.446388 -0.493889,0.517407 -0.776111,0.811389 -0.846666,0.881945 -0.705556,0.799629 -1.270001,1.42287 -1.693334,1.869722 -0.423333,0.446851 -1.058333,1.070092 -1.904999,1.869722 -0.823149,0.776111 -1.622778,1.364074 -2.398889,1.763889 -0.776111,0.399815 -1.493426,0.599722 -2.151944,0.599722 h -0.03528 L 10.64352,75.016959 v -0.141112 c 0,-0.141111 0.3175,-0.423333 0.9525,-0.846666 1.199445,-0.799629 2.739908,-2.198981 4.621389,-4.198055 1.904999,-1.999074 2.857499,-3.480741 2.857499,-4.445 0,-0.258703 -0.16463,-0.552685 -0.493889,-0.881944 -0.305741,-0.329259 -0.458611,-0.576204 -0.458611,-0.740834 0,-0.258703 0.199908,-0.388055 0.599723,-0.388055 0.564444,0 1.234722,0.282222 2.010833,0.846666 0.799629,0.540926 1.199444,1.081852 1.199444,1.622778 z" />
      </g>
    </g>
    <g
       aria-label="メ"
       transform="matrix(1.1406271,0,0,0.87671074,33.735455,0)"
       style="font-style:normal;font-weight:normal;font-size:142.10403442px;line-height:100;font-family:sans-serif;letter-spacing:0px;word-spacing:0px;fill:#000000;fill-opacity:1;stroke:none;stroke-width:1.0657804"
       id="text113">
      <path
         d="m 152.60319,-55.031046 q 0,2.273665 -3.5526,4.831538 h 0.1421 q -0.85262,0.852624 -3.26839,4.973641 v -0.142104 q -5.68416,10.23149 -13.35778,21.599813 2.13156,1.847352 4.54733,3.552601 2.55787,1.563144 4.40522,4.263121 1.98946,2.557873 1.98946,5.115745 0,4.2631212 -3.69471,4.2631212 -1.70525,0 -11.79463,-10.7999062 -14.35251,19.1840442 -31.831306,30.978679 -11.794634,8.384138 -15.773547,8.384138 -1.847353,0 -1.847353,-1.42104 0,-1.136832 7.247306,-5.96837 16.34196,-11.0841143 35.95232,-37.799673 -8.81045,-7.38941 -16.19986,-12.363051 -2.69998,-2.13156 -2.69998,-2.699976 0,-0.852625 0.85263,-1.278937 h 0.42631 q 3.4105,0 10.94201,4.405225 7.53151,4.405225 10.5157,6.67889 15.48934,-23.305062 15.48934,-29.983951 0,-1.847353 -2.27367,-4.263121 -2.13156,-2.415769 -2.13156,-3.268393 0,-1.563145 2.41577,-1.563145 3.4105,0 8.38414,4.689434 5.11575,4.547329 5.11575,7.815721 z"
         style="font-style:normal;font-variant:normal;font-weight:normal;font-stretch:normal;font-family:UnJamoBatang;-inkscape-font-specification:UnJamoBatang;stroke-width:1.0657804"
         id="path1529"
         inkscape:connector-curvature="0" />
    </g>
  </g>
</svg>
