<?xml version="1.0" encoding="UTF-8" standalone="no"?>
<!-- Created with Inkscape (http://www.inkscape.org/) -->

<svg
   xmlns:dc="http://purl.org/dc/elements/1.1/"
   xmlns:cc="http://creativecommons.org/ns#"
   xmlns:rdf="http://www.w3.org/1999/02/22-rdf-syntax-ns#"
   xmlns:svg="http://www.w3.org/2000/svg"
   xmlns="http://www.w3.org/2000/svg"
   xmlns:sodipodi="http://sodipodi.sourceforge.net/DTD/sodipodi-0.dtd"
   xmlns:inkscape="http://www.inkscape.org/namespaces/inkscape"
   width="1000"
   height="1000"
   viewBox="0 0 264.58333 264.58333"
   version="1.1"
   id="svg1056"
   inkscape:version="0.92.5 (2060ec1f9f, 2020-04-08)"
   sodipodi:docname="14.svg"
   inkscape:export-filename="/home/aahaavis/ot2021/ot-harjoitustyo/src/graphics/14.png"
   inkscape:export-xdpi="96"
   inkscape:export-ydpi="96">
  <defs
     id="defs1050" />
  <sodipodi:namedview
     id="base"
     pagecolor="#ffffff"
     bordercolor="#666666"
     borderopacity="1.0"
     inkscape:pageopacity="0.0"
     inkscape:pageshadow="2"
     inkscape:zoom="0.54115914"
     inkscape:cx="350.48641"
     inkscape:cy="460.66279"
     inkscape:document-units="mm"
     inkscape:current-layer="layer1"
     showgrid="true"
     fit-margin-top="0"
     fit-margin-left="0"
     fit-margin-right="0"
     fit-margin-bottom="0"
     inkscape:window-width="1864"
     inkscape:window-height="906"
     inkscape:window-x="56"
     inkscape:window-y="27"
     inkscape:window-maximized="0"
     units="px"
     showguides="true"
     inkscape:snap-grids="false"
     inkscape:snap-global="false" />
  <metadata
     id="metadata1053">
    <rdf:RDF>
      <cc:Work
         rdf:about="">
        <dc:format>image/svg+xml</dc:format>
        <dc:type
           rdf:resource="http://purl.org/dc/dcmitype/StillImage" />
        <dc:title />
      </cc:Work>
    </rdf:RDF>
  </metadata>
  <g
     inkscape:label="Layer 1"
     inkscape:groupmode="layer"
     id="layer1"
     transform="translate(-72.693771,173.07297)">
    <g
       transform="matrix(13.832248,7.0517888,-13.409331,5.2338765,912.40547,-545.68065)"
       id="g274"
       style="font-style:normal;font-variant:normal;font-weight:normal;font-stretch:normal;font-size:35.27777481px;line-height:100;font-family:UnJamoBatang;-inkscape-font-specification:UnJamoBatang;letter-spacing:0px;word-spacing:0px;fill:#000000;fill-opacity:1;stroke:none;stroke-width:0.26458332"
       aria-label="ハ">
      <path
         sodipodi:nodetypes="ccccsccc"
         inkscape:connector-curvature="0"
         id="path272"
         style="font-style:normal;font-variant:normal;font-weight:normal;font-stretch:normal;font-family:UnJamoBatang;-inkscape-font-specification:UnJamoBatang;stroke-width:0.26458332"
         d="M 25.36717,75.148499 C 22.924297,73.280265 20.495151,71.1316 18.415592,69.738665 v 0 c -0.352778,-0.188148 -0.529167,-0.423333 -0.529167,-0.705556 -0.22989,-0.514716 0.493847,-0.647973 0.61144,-0.647973 0.705555,0 2.543448,1.19383 4.519003,2.487349 2.824609,2.301366 3.018857,2.044981 4.162733,2.863178 0.511313,0.786826 -1.685599,1.508711 -1.812431,1.412836 z" />
    </g>
    <g
       aria-label="ヒ"
       transform="matrix(2.0572158,0,0,1.3558288,-115.74554,-7.5980292)"
       style="font-style:normal;font-variant:normal;font-weight:normal;font-stretch:normal;font-size:198.12231445px;line-height:100;font-family:UnJamoBatang;-inkscape-font-specification:UnJamoBatang;letter-spacing:0px;word-spacing:0px;fill:#000000;fill-opacity:1;stroke:none;stroke-width:1.48591733"
       id="text278">
      <path
         inkscape:connector-curvature="0"
         d="m 220.84544,24.135515 q 0,9.311749 -38.23761,9.311749 -8.32114,0 -13.07607,-0.198123 -4.75494,0 -10.69861,-0.594367 -5.74554,-0.594367 -8.9155,-1.783101 -3.16996,-1.188733 -6.93428,-3.169957 -3.5662,-2.179345 -5.3493,-5.15118 -1.7831,-3.169957 -3.56621,-7.528648 -1.58497,-4.556813 -2.17934,-10.5004824 -0.59437,-5.9436694 -0.59437,-13.6704397 V -61.05708 q 0,-17.632886 -3.76432,-20.010354 h 0.19812 q -7.33053,-3.169957 -7.33053,-5.547425 0,-2.57559 4.75494,-2.57559 20.4066,0 20.4066,12.87795 0,1.584979 -1.98122,8.123015 -1.78311,5.94367 -2.37747,14.264807 -0.39625,8.123015 -0.39625,14.264807 3.76433,0.990611 9.11363,0.990611 12.67983,0 26.35027,-4.754935 3.76432,-1.584979 9.31175,-3.36808 5.54742,-1.981223 9.70799,-1.981223 12.28358,0 12.28358,7.330526 0,3.368079 -6.14179,4.556813 -27.14276,5.349302 -46.1625,5.349302 -7.33052,0 -14.85917,-1.7831 0,3.566201 -0.19812,9.906115 -0.19813,6.339914 -0.39625,11.491095 0,5.1511797 0,9.9061153 0,16.6422747 6.14179,21.3972097 6.33992,4.556813 23.77468,4.556813 17.03852,0 32.09582,-3.962446 7.33052,-2.179345 10.50048,-2.179345 8.51926,0 8.51926,6.339914 z"
         style="font-style:normal;font-variant:normal;font-weight:bold;font-stretch:normal;font-family:UnJamoBatang;-inkscape-font-specification:UnJamoBatang;stroke-width:1.48591733"
         id="path1620" />
    </g>
  </g>
</svg>
