<?xml version="1.0" encoding="UTF-8" standalone="no"?>
<!-- Created with Inkscape (http://www.inkscape.org/) -->

<svg
   xmlns:dc="http://purl.org/dc/elements/1.1/"
   xmlns:cc="http://creativecommons.org/ns#"
   xmlns:rdf="http://www.w3.org/1999/02/22-rdf-syntax-ns#"
   xmlns:svg="http://www.w3.org/2000/svg"
   xmlns="http://www.w3.org/2000/svg"
   xmlns:sodipodi="http://sodipodi.sourceforge.net/DTD/sodipodi-0.dtd"
   xmlns:inkscape="http://www.inkscape.org/namespaces/inkscape"
   width="1000"
   height="1000"
   viewBox="0 0 264.58333 264.58333"
   version="1.1"
   id="svg1056"
   inkscape:version="0.92.5 (2060ec1f9f, 2020-04-08)"
   sodipodi:docname="15.svg"
   inkscape:export-filename="/home/aahaavis/ot2021/ot-harjoitustyo/src/graphics/15.png"
   inkscape:export-xdpi="96"
   inkscape:export-ydpi="96">
  <defs
     id="defs1050" />
  <sodipodi:namedview
     id="base"
     pagecolor="#ffffff"
     bordercolor="#666666"
     borderopacity="1.0"
     inkscape:pageopacity="0.0"
     inkscape:pageshadow="2"
     inkscape:zoom="0.54115914"
     inkscape:cx="350.48641"
     inkscape:cy="460.66279"
     inkscape:document-units="mm"
     inkscape:current-layer="layer1"
     showgrid="true"
     fit-margin-top="0"
     fit-margin-left="0"
     fit-margin-right="0"
     fit-margin-bottom="0"
     inkscape:window-width="1864"
     inkscape:window-height="906"
     inkscape:window-x="56"
     inkscape:window-y="83"
     inkscape:window-maximized="0"
     units="px"
     showguides="true"
     inkscape:snap-grids="false"
     inkscape:snap-global="false" />
  <metadata
     id="metadata1053">
    <rdf:RDF>
      <cc:Work
         rdf:about="">
        <dc:format>image/svg+xml</dc:format>
        <dc:type
           rdf:resource="http://purl.org/dc/dcmitype/StillImage" />
        <dc:title />
      </cc:Work>
    </rdf:RDF>
  </metadata>
  <g
     inkscape:label="Layer 1"
     inkscape:groupmode="layer"
     id="layer1"
     transform="translate(-72.693771,173.07297)">
    <g
       transform="matrix(10.357046,0,0,10.959736,-709.35916,-1132.6208)"
       id="g724">
      <g
         aria-label="タ"
         transform="scale(1.0966554,0.91186346)"
         style="font-style:normal;font-variant:normal;font-weight:normal;font-stretch:normal;font-size:26.84179878px;line-height:100;font-family:UnJamoBatang;-inkscape-font-specification:UnJamoBatang;letter-spacing:0px;word-spacing:0px;fill:#000000;fill-opacity:1;stroke:none;stroke-width:0.20131351"
         id="text722">
        <path
           d="m 92.166938,103.02478 q 0,0.10736 -0.134209,0.3221 l -0.671045,0.42947 h 0.02684 q -0.268418,0.29526 -0.590519,0.83209 -0.29526,0.51 -0.671045,1.28841 -0.348943,0.75157 -0.456311,0.93946 -2.872072,5.36836 -8.133065,9.07253 -3.355225,2.41576 -4.750998,2.41576 -0.29526,0 -0.29526,-0.24157 0,-0.26842 0.751571,-0.64421 4.804682,-2.68418 8.347799,-7.32781 -1.529983,-2.22787 -3.677326,-3.56996 -2.066819,2.1205 -4.187321,2.1205 -0.268418,0 -0.268418,-0.18789 0,-0.0805 0.134209,-0.21473 0.45631,-0.34895 1.422615,-1.04683 0.993147,-0.69789 1.717875,-1.26157 0.724729,-0.56368 1.315249,-1.20788 2.576812,-2.7647 2.576812,-3.83838 0,-0.16105 -0.778412,-1.046826 h 0.02684 q -0.214735,-0.161051 -0.214735,-0.348943 0,-0.348944 0.483153,-0.348944 0.590519,0 1.556824,0.697887 0.966305,0.697886 0.966305,1.261566 0,0.29526 -0.322102,0.56368 0.456311,0.16105 0.88578,0.16105 0.45631,0 1.234722,-0.13421 0.805254,-0.13421 1.154198,-0.29526 v 0.0268 q 0.590519,-0.29526 0.697887,-0.29526 0.617361,0 1.234722,0.6442 0.617362,0.61736 0.617362,1.23473 z m -2.362079,-0.32211 q -0.08052,-0.0805 -0.214734,-0.0805 -0.563678,0 -1.529983,0.21473 -0.966304,0.21474 -1.368931,0.21474 -0.348944,0 -0.966305,-0.69789 -2.281553,2.79155 -3.113649,3.51628 h 0.02684 l -0.187893,0.18789 h 0.02684 l -0.05368,0.0537 q 0.858937,0.21474 2.120502,0.93947 1.261564,0.72472 1.7984,1.34209 0.02684,0.18789 0.241577,0.40262 1.905767,-2.92575 2.308394,-3.99943 0.268418,-0.69788 0.912621,-2.09366 z"
           style="font-style:normal;font-variant:normal;font-weight:normal;font-stretch:normal;font-family:UnJamoBatang;-inkscape-font-specification:UnJamoBatang;stroke-width:0.20131351"
           id="path1712"
           inkscape:connector-curvature="0" />
      </g>
    </g>
  </g>
</svg>
