<?xml version="1.0" encoding="UTF-8" standalone="no"?>
<!-- Created with Inkscape (http://www.inkscape.org/) -->

<svg
   xmlns:dc="http://purl.org/dc/elements/1.1/"
   xmlns:cc="http://creativecommons.org/ns#"
   xmlns:rdf="http://www.w3.org/1999/02/22-rdf-syntax-ns#"
   xmlns:svg="http://www.w3.org/2000/svg"
   xmlns="http://www.w3.org/2000/svg"
   xmlns:sodipodi="http://sodipodi.sourceforge.net/DTD/sodipodi-0.dtd"
   xmlns:inkscape="http://www.inkscape.org/namespaces/inkscape"
   width="1000"
   height="1000"
   viewBox="0 0 264.58333 264.58333"
   version="1.1"
   id="svg1056"
   inkscape:version="0.92.5 (2060ec1f9f, 2020-04-08)"
   sodipodi:docname="16.svg"
   inkscape:export-filename="/home/aahaavis/ot2021/ot-harjoitustyo/src/graphics/16.png"
   inkscape:export-xdpi="96"
   inkscape:export-ydpi="96">
  <defs
     id="defs1050" />
  <sodipodi:namedview
     id="base"
     pagecolor="#ffffff"
     bordercolor="#666666"
     borderopacity="1.0"
     inkscape:pageopacity="0.0"
     inkscape:pageshadow="2"
     inkscape:zoom="0.54115914"
     inkscape:cx="356.03007"
     inkscape:cy="460.66279"
     inkscape:document-units="mm"
     inkscape:current-layer="layer1"
     showgrid="true"
     fit-margin-top="0"
     fit-margin-left="0"
     fit-margin-right="0"
     fit-margin-bottom="0"
     inkscape:window-width="1864"
     inkscape:window-height="906"
     inkscape:window-x="56"
     inkscape:window-y="151"
     inkscape:window-maximized="0"
     units="px"
     showguides="true"
     inkscape:snap-grids="false"
     inkscape:snap-global="false" />
  <metadata
     id="metadata1053">
    <rdf:RDF>
      <cc:Work
         rdf:about="">
        <dc:format>image/svg+xml</dc:format>
        <dc:type
           rdf:resource="http://purl.org/dc/dcmitype/StillImage" />
        <dc:title />
      </cc:Work>
    </rdf:RDF>
  </metadata>
  <g
     inkscape:label="Layer 1"
     inkscape:groupmode="layer"
     id="layer1"
     transform="translate(-72.693771,173.07297)">
    <g
       id="text296"
       style="font-style:normal;font-weight:normal;font-size:37.72265625px;line-height:100;font-family:sans-serif;letter-spacing:0px;word-spacing:0px;fill:#000000;fill-opacity:1;stroke:none;stroke-width:0.28291991"
       transform="matrix(10.242771,0,0,9.3567678,922.38776,-117.52585)"
       aria-label="ロ">
      <path
         inkscape:connector-curvature="0"
         id="path14"
         style="font-style:normal;font-variant:normal;font-weight:normal;font-stretch:normal;font-family:UnJamoBatang;-inkscape-font-specification:UnJamoBatang;stroke-width:0.28291991"
         d="m -57.061576,3.3945782 q 0,0.113168 -0.528117,0.7544531 -0.528118,0.6412852 -0.641286,0.9807891 -0.301781,1.0562344 -0.905343,3.6968203 -0.603563,2.6028633 -1.056235,3.9986013 v -0.03772 l -0.07545,0.188613 q 1.772965,0.150891 1.772965,1.395738 0,0.905344 -1.244848,0.905344 -0.829898,0 -1.886133,-0.188613 -1.584351,-0.226336 -3.923156,-0.226336 -3.206426,0 -6.488297,0.452672 0,1.735242 -1.056234,1.735242 -1.244848,0 -1.358016,-2.187914 l -0.113168,-3.54593 Q -74.86667,3.8849727 -76.526467,2.7155704 l -0.452672,-0.2640586 q -0.490394,-0.2640586 -0.754453,-0.4903945 -0.264059,-0.226336 -0.264059,-0.4526719 0,-0.3772266 0.679008,-0.3772266 2.942367,0 3.54593,0.7921758 h 0.679008 q 9.279773,0 11.844914,-1.13167966 v 0.0377226 l 0.56584,-0.30178125 h -0.03772 q 0.264059,-0.15089062 0.56584,-0.15089062 0.264058,0 0.792176,0.30178125 0.528117,0.30178125 0.679007,0.41494918 0.150891,0.075445 0.56584,0.4149493 0.41495,0.3017813 0.56584,0.5281172 0.188613,0.1886133 0.339504,0.5658398 0.150891,0.3772266 0.150891,0.7921758 z m -3.508207,0.3395039 q 0,-0.980789 -1.320293,-0.980789 -5.809289,0 -11.769469,0.8676211 0.150891,0.6035625 0.528117,4.6398867 0.264059,2.6028631 0.867621,5.5829531 5.017114,-0.377227 5.922457,-0.490395 3.395039,-0.339503 4.526719,-0.339503 1.244848,-5.0548364 1.244848,-9.2797739 z" />
    </g>
    <g
       transform="matrix(9.9358802,8.8046753,-9.6320938,6.5348786,727.35116,-704.22943)"
       id="g300"
       style="font-style:normal;font-variant:normal;font-weight:normal;font-stretch:normal;font-size:35.27777481px;line-height:100;font-family:UnJamoBatang;-inkscape-font-specification:UnJamoBatang;letter-spacing:0px;word-spacing:0px;fill:#000000;fill-opacity:1;stroke:none;stroke-width:0.26458332"
       aria-label="ハ">
      <path
         sodipodi:nodetypes="ccccsccc"
         inkscape:connector-curvature="0"
         id="path298"
         style="font-style:normal;font-variant:normal;font-weight:normal;font-stretch:normal;font-family:UnJamoBatang;-inkscape-font-specification:UnJamoBatang;stroke-width:0.26458332"
         d="M 25.36717,75.148499 C 22.924297,73.280265 20.495151,71.1316 18.415592,69.738665 v 0 c -0.352778,-0.188148 -0.529167,-0.423333 -0.529167,-0.705556 -0.22989,-0.514716 0.493847,-0.647973 0.61144,-0.647973 0.705555,0 2.543448,1.19383 4.519003,2.487349 2.824609,2.301366 3.018857,2.044981 4.162733,2.863178 0.511313,0.786826 -1.685599,1.508711 -1.812431,1.412836 z" />
    </g>
    <g
       aria-label="ハ"
       style="font-style:normal;font-variant:normal;font-weight:normal;font-stretch:normal;font-size:35.27777481px;line-height:100;font-family:UnJamoBatang;-inkscape-font-specification:UnJamoBatang;letter-spacing:0px;word-spacing:0px;fill:#000000;fill-opacity:1;stroke:none;stroke-width:0.26458332"
       id="g314"
       transform="matrix(6.0591693,13.932026,-10.746708,0.00227869,840.77513,-352.6263)">
      <path
         d="M 25.36717,75.148499 C 22.924297,73.280265 20.495151,71.1316 18.415592,69.738665 v 0 c -0.352778,-0.188148 -0.529167,-0.423333 -0.529167,-0.705556 -0.22989,-0.514716 0.493847,-0.647973 0.61144,-0.647973 0.705555,0 2.543448,1.19383 4.519003,2.487349 2.824609,2.301366 3.018857,2.044981 4.162733,2.863178 0.511313,0.786826 -1.685599,1.508711 -1.812431,1.412836 z"
         style="font-style:normal;font-variant:normal;font-weight:normal;font-stretch:normal;font-family:UnJamoBatang;-inkscape-font-specification:UnJamoBatang;stroke-width:0.26458332"
         id="path312"
         inkscape:connector-curvature="0"
         sodipodi:nodetypes="ccccsccc" />
    </g>
  </g>
</svg>
