<?xml version="1.0" encoding="UTF-8" standalone="no"?>
<!-- Created with Inkscape (http://www.inkscape.org/) -->

<svg
   xmlns:dc="http://purl.org/dc/elements/1.1/"
   xmlns:cc="http://creativecommons.org/ns#"
   xmlns:rdf="http://www.w3.org/1999/02/22-rdf-syntax-ns#"
   xmlns:svg="http://www.w3.org/2000/svg"
   xmlns="http://www.w3.org/2000/svg"
   xmlns:sodipodi="http://sodipodi.sourceforge.net/DTD/sodipodi-0.dtd"
   xmlns:inkscape="http://www.inkscape.org/namespaces/inkscape"
   width="1000"
   height="1000"
   viewBox="0 0 264.58333 264.58333"
   version="1.1"
   id="svg1056"
   inkscape:version="0.92.5 (2060ec1f9f, 2020-04-08)"
   sodipodi:docname="4.svg"
   inkscape:export-filename="/home/aahaavis/ot2021/ot-harjoitustyo/src/graphics/4.png"
   inkscape:export-xdpi="96"
   inkscape:export-ydpi="96">
  <defs
     id="defs1050" />
  <sodipodi:namedview
     id="base"
     pagecolor="#ffffff"
     bordercolor="#666666"
     borderopacity="1.0"
     inkscape:pageopacity="0.0"
     inkscape:pageshadow="2"
     inkscape:zoom="0.54115914"
     inkscape:cx="368.22116"
     inkscape:cy="460.66279"
     inkscape:document-units="mm"
     inkscape:current-layer="layer1"
     showgrid="true"
     fit-margin-top="0"
     fit-margin-left="0"
     fit-margin-right="0"
     fit-margin-bottom="0"
     inkscape:window-width="1718"
     inkscape:window-height="906"
     inkscape:window-x="202"
     inkscape:window-y="83"
     inkscape:window-maximized="0"
     units="px"
     showguides="true"
     inkscape:snap-grids="false" />
  <metadata
     id="metadata1053">
    <rdf:RDF>
      <cc:Work
         rdf:about="">
        <dc:format>image/svg+xml</dc:format>
        <dc:type
           rdf:resource="http://purl.org/dc/dcmitype/StillImage" />
        <dc:title />
      </cc:Work>
    </rdf:RDF>
  </metadata>
  <g
     inkscape:label="Layer 1"
     inkscape:groupmode="layer"
     id="layer1"
     transform="translate(-72.693771,173.07297)">
    <g
       aria-label="ツ"
       transform="matrix(0.88584913,0,0,1.1288604,37.646812,-1.4667589)"
       style="font-style:normal;font-variant:normal;font-weight:normal;font-stretch:normal;font-size:291.23150635px;line-height:100;font-family:UnJamoBatang;-inkscape-font-specification:UnJamoBatang;letter-spacing:0px;word-spacing:0px;fill:#000000;fill-opacity:1;stroke:none;stroke-width:2.18423653"
       id="text58">
      <path
         d="m 249.89383,-70.703392 q 0,11.066797 -8.73695,11.066797 -7.57202,0 -13.68788,-21.2599 -4.07724,-14.561575 -13.10542,-29.123155 v 0.29124 q -1.16492,-0.8737 -1.16492,-3.78601 0,-2.03862 2.32985,-2.03862 7.86325,0 20.96867,18.056349 13.39665,18.056353 13.39665,26.793299 z m 84.74836,-19.512511 q 0,3.203546 -6.11586,10.193102 l -6.11586,6.698325 q -13.10542,19.803742 -23.58975,35.821475 -10.1931,16.017733 -24.17222,32.9091605 -13.97911,16.8914275 -29.99684,31.1617715 -26.7933,23.29852 -35.23901,23.29852 -2.91232,0 -2.91232,-2.621083 0,-1.456158 5.24217,-5.533399 29.41438,-24.463447 60.57615,-67.565709 36.40394,-50.674283 36.40394,-67.56571 0,-3.78601 -5.24217,-9.31941 -4.95093,-5.5334 -4.95093,-7.57202 0,-3.20354 6.11586,-3.20354 6.69832,0 18.34758,8.44571 11.64926,8.445713 11.64926,14.852807 z M 189.6089,-54.394428 q 0,11.940492 -9.02817,11.940492 -6.98956,0 -13.39665,-21.551132 -2.03862,-6.407093 -14.56158,-31.744234 0,-2.621084 3.20355,-2.621084 5.5334,0 26.50207,25.337141 7.28078,8.736946 7.28078,18.638817 z"
         style="font-style:normal;font-variant:normal;font-weight:normal;font-stretch:normal;font-family:UnJamoBatang;-inkscape-font-specification:UnJamoBatang;stroke-width:2.18423653"
         id="path1212"
         inkscape:connector-curvature="0" />
    </g>
    <g
       aria-label="メ"
       transform="matrix(1.0886624,0,0,0.91855844,37.646812,-1.4667589)"
       style="font-style:normal;font-weight:normal;font-size:146.78527832px;line-height:100;font-family:sans-serif;letter-spacing:0px;word-spacing:0px;fill:#000000;fill-opacity:1;stroke:none;stroke-width:1.10088968"
       id="text76">
      <path
         d="m 179.78781,-27.755835 q 0,2.348564 -3.66964,4.9907 h 0.14679 q -0.88071,0.880711 -3.37606,5.137484 v -0.146785 q -5.87141,10.56854 -13.79782,22.3113623 2.20178,1.9082086 4.69713,3.6696319 2.64213,1.6146381 4.55034,4.4035588 2.055,2.642135 2.055,5.28427 0,4.403558 -3.81642,4.403558 -1.76142,0 -12.18318,-11.155681 -14.82531,19.816012 -32.8799,31.99919 -12.18318,8.660332 -16.29317,8.660332 -1.9082,0 -1.9082,-1.467853 0,-1.174282 7.48604,-6.164982 16.88031,-11.449251 37.13668,-39.0448836 -9.10069,-7.6328345 -16.73352,-12.7703192 -2.78892,-2.2017792 -2.78892,-2.7889202 0,-0.880712 0.88071,-1.321068 h 0.44036 q 3.52284,0 11.30246,4.550344 7.77962,4.5503436 10.86211,6.89890808 15.9996,-24.07278608 15.9996,-30.97169408 0,-1.908208 -2.34857,-4.403558 -2.20178,-2.49535 -2.20178,-3.376061 0,-1.614638 2.49535,-1.614638 3.52285,0 8.66034,4.843914 5.28427,4.697129 5.28427,8.07319 z"
         style="font-style:normal;font-variant:normal;font-weight:normal;font-stretch:normal;font-family:UnJamoBatang;-inkscape-font-specification:UnJamoBatang;stroke-width:1.10088968"
         id="path1209"
         inkscape:connector-curvature="0" />
    </g>
  </g>
</svg>
