<?xml version="1.0" encoding="UTF-8" standalone="no"?>
<!-- Created with Inkscape (http://www.inkscape.org/) -->

<svg
   xmlns:dc="http://purl.org/dc/elements/1.1/"
   xmlns:cc="http://creativecommons.org/ns#"
   xmlns:rdf="http://www.w3.org/1999/02/22-rdf-syntax-ns#"
   xmlns:svg="http://www.w3.org/2000/svg"
   xmlns="http://www.w3.org/2000/svg"
   xmlns:sodipodi="http://sodipodi.sourceforge.net/DTD/sodipodi-0.dtd"
   xmlns:inkscape="http://www.inkscape.org/namespaces/inkscape"
   width="1000"
   height="1000"
   viewBox="0 0 264.58333 264.58333"
   version="1.1"
   id="svg1056"
   inkscape:version="0.92.5 (2060ec1f9f, 2020-04-08)"
   sodipodi:docname="7.svg"
   inkscape:export-filename="/home/aahaavis/ot2021/ot-harjoitustyo/src/graphics/7.png"
   inkscape:export-xdpi="96"
   inkscape:export-ydpi="96">
  <defs
     id="defs1050" />
  <sodipodi:namedview
     id="base"
     pagecolor="#ffffff"
     bordercolor="#666666"
     borderopacity="1.0"
     inkscape:pageopacity="0.0"
     inkscape:pageshadow="2"
     inkscape:zoom="0.54115914"
     inkscape:cx="368.22116"
     inkscape:cy="460.66279"
     inkscape:document-units="mm"
     inkscape:current-layer="layer1"
     showgrid="true"
     fit-margin-top="0"
     fit-margin-left="0"
     fit-margin-right="0"
     fit-margin-bottom="0"
     inkscape:window-width="1718"
     inkscape:window-height="906"
     inkscape:window-x="202"
     inkscape:window-y="151"
     inkscape:window-maximized="0"
     units="px"
     showguides="true"
     inkscape:snap-grids="false"
     inkscape:snap-global="false" />
  <metadata
     id="metadata1053">
    <rdf:RDF>
      <cc:Work
         rdf:about="">
        <dc:format>image/svg+xml</dc:format>
        <dc:type
           rdf:resource="http://purl.org/dc/dcmitype/StillImage" />
        <dc:title />
      </cc:Work>
    </rdf:RDF>
  </metadata>
  <g
     inkscape:label="Layer 1"
     inkscape:groupmode="layer"
     id="layer1"
     transform="translate(-72.693771,173.07297)">
    <g
       aria-label="レ"
       transform="matrix(1.7719071,0,0,1.2904383,-85.762274,-35.646125)"
       style="font-style:normal;font-variant:normal;font-weight:normal;font-stretch:normal;font-size:225.52534485px;line-height:100;font-family:UnJamoBatang;-inkscape-font-specification:UnJamoBatang;letter-spacing:0px;word-spacing:0px;fill:#000000;fill-opacity:1;stroke:none;stroke-width:1.69143999"
       id="text20">
      <path
         inkscape:connector-curvature="0"
         d="m 239.30174,-33.614853 q 0,3.608405 -16.9144,21.650433 -15.33572,16.4633501 -33.37775,29.54382 -18.04203,12.854945 -43.52639,28.416194 -1.80421,1.127626 -6.54024,5.863659 v -0.225526 q -2.48078,2.93183 -5.41261,2.93183 -7.66786,0 -10.14864,-5.412609 -2.25525,-5.638133 -2.25525,-14.433622 0,-3.157355 1.12763,-9.021013 1.35315,-5.863659 1.35315,-9.021014 v -39.917986 q 0,-29.769346 -8.11891,-34.505378 v 0.225525 q -5.41261,-2.029728 -5.41261,-4.059456 0,-3.157355 5.86366,-3.157355 6.08918,0 15.33572,5.412609 9.24654,5.187082 9.24654,10.825216 0,1.353152 -3.60841,7.442336 -3.6084,5.863659 -3.6084,69.687332 0,3.608406 2.02973,3.608406 9.47206,0 44.42849,-21.875959 21.19938,-13.0804699 54.57713,-43.977442 2.02973,-2.029728 2.70631,-2.029728 2.25525,0 2.25525,2.029728 z"
         style="font-style:normal;font-variant:normal;font-weight:normal;font-stretch:normal;font-family:UnJamoBatang;-inkscape-font-specification:UnJamoBatang;stroke-width:1.69143999"
         id="path1315" />
    </g>
  </g>
</svg>
