<?xml version="1.0" encoding="UTF-8" standalone="no"?>
<!-- Created with Inkscape (http://www.inkscape.org/) -->

<svg
   xmlns:dc="http://purl.org/dc/elements/1.1/"
   xmlns:cc="http://creativecommons.org/ns#"
   xmlns:rdf="http://www.w3.org/1999/02/22-rdf-syntax-ns#"
   xmlns:svg="http://www.w3.org/2000/svg"
   xmlns="http://www.w3.org/2000/svg"
   xmlns:sodipodi="http://sodipodi.sourceforge.net/DTD/sodipodi-0.dtd"
   xmlns:inkscape="http://www.inkscape.org/namespaces/inkscape"
   width="1000"
   height="1000"
   viewBox="0 0 264.58333 264.58333"
   version="1.1"
   id="svg1056"
   inkscape:version="0.92.5 (2060ec1f9f, 2020-04-08)"
   sodipodi:docname="8.svg"
   inkscape:export-filename="/home/aahaavis/ot2021/ot-harjoitustyo/src/graphics/8.png"
   inkscape:export-xdpi="96"
   inkscape:export-ydpi="96">
  <defs
     id="defs1050" />
  <sodipodi:namedview
     id="base"
     pagecolor="#ffffff"
     bordercolor="#666666"
     borderopacity="1.0"
     inkscape:pageopacity="0.0"
     inkscape:pageshadow="2"
     inkscape:zoom="0.53740115"
     inkscape:cx="684.05593"
     inkscape:cy="391.80548"
     inkscape:document-units="mm"
     inkscape:current-layer="layer1"
     showgrid="true"
     fit-margin-top="0"
     fit-margin-left="0"
     fit-margin-right="0"
     fit-margin-bottom="0"
     inkscape:window-width="1715"
     inkscape:window-height="906"
     inkscape:window-x="205"
     inkscape:window-y="151"
     inkscape:window-maximized="0"
     units="px"
     showguides="true"
     inkscape:snap-grids="false" />
  <metadata
     id="metadata1053">
    <rdf:RDF>
      <cc:Work
         rdf:about="">
        <dc:format>image/svg+xml</dc:format>
        <dc:type
           rdf:resource="http://purl.org/dc/dcmitype/StillImage" />
        <dc:title />
      </cc:Work>
    </rdf:RDF>
  </metadata>
  <g
     inkscape:label="Layer 1"
     inkscape:groupmode="layer"
     id="layer1"
     transform="translate(-72.693771,173.07297)">
    <g
       aria-label="ãƒ"
       transform="matrix(1.1154963,0,0,0.89646197,63.51168,-1.9693544)"
       style="font-style:normal;font-variant:normal;font-weight:normal;font-stretch:normal;font-size:163.90148926px;line-height:100;font-family:UnJamoBatang;-inkscape-font-specification:UnJamoBatang;letter-spacing:0px;word-spacing:0px;fill:#000000;fill-opacity:1;stroke:none;stroke-width:1.22926104"
       id="text186">
      <path
         d="m 246.3479,-18.152788 q 0,2.458522 -3.11413,2.458522 -0.6556,0 -1.96681,-0.163901 -1.14731,-0.327803 -1.31121,-0.327803 -9.17849,-1.966818 -21.1433,-1.966818 -3.27803,0 -9.83409,0.491704 -6.39215,0.491705 -9.67018,0.491705 -0.98341,9.9979908 -3.27803,19.3403757 -2.13072,9.3423853 -6.06436,19.3403753 -3.76973,9.83409 -10.48969,17.53746 -6.71997,7.70337 -15.40674,11.309203 h -0.49171 q -1.14731,0 -1.14731,-1.147311 0,-1.14731 3.44193,-4.097537 20.32379,-18.029164 24.25742,-61.463059 -33.1081,3.441932 -40.31976,6.3921585 -2.29462,0.9834089 -3.60584,0.9834089 -3.44193,0 -7.70337,-4.0975374 -4.26144,-4.097537 -4.26144,-7.539468 0,-1.639015 1.96682,-1.639015 1.80292,0 5.40875,1.966818 3.60583,1.802916 5.57265,1.802916 1.96682,0 5.57265,-0.655606 14.91504,-2.294621 38.02515,-4.097537 0.1639,-1.966818 0.1639,-6.064355 0,-9.670188 -6.71996,-14.587233 -19.83208,7.70337 -29.50227,7.70337 -2.78632,0 -2.78632,-1.802916 0,-0.983409 1.96681,-1.639015 5.73656,-1.639015 15.57064,-5.244848 9.998,-3.605833 20.48769,-9.014582 10.4897,-5.57265 10.4897,-9.178483 0,-1.475113 -1.96682,-3.114128 -1.96682,-1.639015 -1.96682,-2.294621 0,-1.802917 2.62242,-1.802917 4.42534,0 9.67019,3.769735 5.40875,3.605832 5.40875,7.867271 0,2.458522 -4.09754,3.605833 -2.95022,0.819507 -9.50628,4.42534 -6.55606,3.441931 -10.4897,4.097537 10.6536,5.080947 10.6536,10.489696 0,2.130719 -0.65561,6.228256 -0.6556,4.097537 -0.6556,5.900454 3.44193,-0.163902 10.65359,-0.491705 7.21167,-0.327803 10.6536,-0.655606 1.80292,-0.163901 5.73655,-1.14731 3.93364,-0.983409 6.06436,-0.983409 13.76772,0 13.76772,9.014582 z"
         style="font-style:normal;font-variant:normal;font-weight:normal;font-stretch:normal;font-family:UnJamoBatang;-inkscape-font-specification:UnJamoBatang;stroke-width:1.22926104"
         id="path1451"
         inkscape:connector-curvature="0" />
    </g>
  </g>
</svg>
