<?xml version="1.0" encoding="UTF-8" standalone="no"?>
<!-- Created with Inkscape (http://www.inkscape.org/) -->

<svg
   xmlns:dc="http://purl.org/dc/elements/1.1/"
   xmlns:cc="http://creativecommons.org/ns#"
   xmlns:rdf="http://www.w3.org/1999/02/22-rdf-syntax-ns#"
   xmlns:svg="http://www.w3.org/2000/svg"
   xmlns="http://www.w3.org/2000/svg"
   xmlns:sodipodi="http://sodipodi.sourceforge.net/DTD/sodipodi-0.dtd"
   xmlns:inkscape="http://www.inkscape.org/namespaces/inkscape"
   width="1000"
   height="1000"
   viewBox="0 0 264.58333 264.58333"
   version="1.1"
   id="svg1056"
   inkscape:version="0.92.5 (2060ec1f9f, 2020-04-08)"
   sodipodi:docname="9.svg"
   inkscape:export-filename="/home/aahaavis/ot2021/ot-harjoitustyo/src/graphics/9.png"
   inkscape:export-xdpi="96"
   inkscape:export-ydpi="96">
  <defs
     id="defs1050" />
  <sodipodi:namedview
     id="base"
     pagecolor="#ffffff"
     bordercolor="#666666"
     borderopacity="1.0"
     inkscape:pageopacity="0.0"
     inkscape:pageshadow="2"
     inkscape:zoom="0.54115914"
     inkscape:cx="368.22116"
     inkscape:cy="460.66279"
     inkscape:document-units="mm"
     inkscape:current-layer="layer1"
     showgrid="true"
     fit-margin-top="0"
     fit-margin-left="0"
     fit-margin-right="0"
     fit-margin-bottom="0"
     inkscape:window-width="1718"
     inkscape:window-height="906"
     inkscape:window-x="202"
     inkscape:window-y="151"
     inkscape:window-maximized="0"
     units="px"
     showguides="true"
     inkscape:snap-grids="false"
     inkscape:snap-global="false" />
  <metadata
     id="metadata1053">
    <rdf:RDF>
      <cc:Work
         rdf:about="">
        <dc:format>image/svg+xml</dc:format>
        <dc:type
           rdf:resource="http://purl.org/dc/dcmitype/StillImage" />
        <dc:title />
      </cc:Work>
    </rdf:RDF>
  </metadata>
  <g
     inkscape:label="Layer 1"
     inkscape:groupmode="layer"
     id="layer1"
     transform="translate(-72.693771,173.07297)">
    <g
       aria-label="ãƒ"
       transform="matrix(1.0157993,0,0,0.98444644,50.358723,-2.9335179)"
       style="font-style:normal;font-variant:normal;font-weight:normal;font-stretch:normal;font-size:253.17025757px;line-height:100;font-family:UnJamoBatang;-inkscape-font-specification:UnJamoBatang;letter-spacing:0px;word-spacing:0px;fill:#000000;fill-opacity:1;stroke:none;stroke-width:1.89877665"
       id="text186">
      <path
         d="m 283.28929,-51.313074 q 0,3.797554 -4.81023,3.797554 -1.01268,0 -3.03805,-0.253171 -1.77219,-0.50634 -2.02536,-0.50634 -14.17753,-3.038043 -32.65896,-3.038043 -5.06341,0 -15.19022,0.75951 -9.87364,0.759511 -14.93704,0.759511 -1.51902,15.443386 -5.06341,29.874091 -3.29121,14.4307043 -9.3673,29.87409 -5.82291,15.190215 -16.20289,27.089218 -10.37998,11.899002 -23.79801,17.468747 h -0.75951 q -1.77219,0 -1.77219,-1.772191 0,-1.772192 5.31658,-6.329257 31.39311,-27.848728 37.46919,-94.938846 -51.14039,5.316575 -62.27988,9.87364 -3.54438,1.519021 -5.56974,1.519021 -5.31658,0 -11.89901,-6.329256 -6.58242,-6.329257 -6.58242,-11.645832 0,-2.531703 3.03804,-2.531703 2.78487,0 8.35462,3.038043 5.56974,2.784873 8.60779,2.784873 3.03804,0 8.60779,-1.012681 23.03849,-3.544383 58.7355,-6.329256 0.25317,-3.038043 0.25317,-9.3673 0,-14.937045 -10.37999,-22.532153 -30.6336,11.899002 -45.57064,11.899002 -4.3039,0 -4.3039,-2.784872 0,-1.519022 3.03805,-2.531703 8.86096,-2.531703 24.05117,-8.101448 15.44339,-5.569746 31.64628,-13.924364 16.2029,-8.60779 16.2029,-14.17753 0,-2.27854 -3.03804,-4.81024 -3.03805,-2.5317 -3.03805,-3.54438 0,-2.78488 4.05073,-2.78488 6.8356,0 14.93704,5.82292 8.35462,5.56975 8.35462,12.15217 0,3.79756 -6.32925,5.56975 -4.55707,1.26585 -14.68388,6.83559 -10.12681,5.31658 -16.2029,6.329261 16.45607,7.848278 16.45607,16.202897 0,3.291213 -1.01268,9.620469 -1.01268,6.329257 -1.01268,9.11413 5.31657,-0.253171 16.45607,-0.759511 11.13949,-0.506341 16.45606,-1.012681 2.78488,-0.25317 8.86096,-1.772192 6.07609,-1.519021 9.3673,-1.519021 21.2663,0 21.2663,13.924364 z"
         style="font-style:normal;font-variant:normal;font-weight:normal;font-stretch:normal;font-family:UnJamoBatang;-inkscape-font-specification:UnJamoBatang;stroke-width:1.89877665"
         id="path1448"
         inkscape:connector-curvature="0" />
    </g>
  </g>
</svg>
