<?xml version="1.0" encoding="UTF-8" standalone="no"?>
<!-- Created with Inkscape (http://www.inkscape.org/) -->

<svg
   xmlns:dc="http://purl.org/dc/elements/1.1/"
   xmlns:cc="http://creativecommons.org/ns#"
   xmlns:rdf="http://www.w3.org/1999/02/22-rdf-syntax-ns#"
   xmlns:svg="http://www.w3.org/2000/svg"
   xmlns="http://www.w3.org/2000/svg"
   xmlns:sodipodi="http://sodipodi.sourceforge.net/DTD/sodipodi-0.dtd"
   xmlns:inkscape="http://www.inkscape.org/namespaces/inkscape"
   width="1000"
   height="1000"
   viewBox="0 0 264.58333 264.58333"
   version="1.1"
   id="svg1056"
   inkscape:version="0.92.5 (2060ec1f9f, 2020-04-08)"
   sodipodi:docname="daikan.svg"
   inkscape:export-filename="/home/aahaavis/ot2021/ot-harjoitustyo/src/graphics/kan.png"
   inkscape:export-xdpi="96"
   inkscape:export-ydpi="96">
  <defs
     id="defs1050" />
  <sodipodi:namedview
     id="base"
     pagecolor="#ffffff"
     bordercolor="#666666"
     borderopacity="1.0"
     inkscape:pageopacity="0.0"
     inkscape:pageshadow="2"
     inkscape:zoom="0.21825269"
     inkscape:cx="584.36642"
     inkscape:cy="491.70821"
     inkscape:document-units="mm"
     inkscape:current-layer="text40"
     showgrid="true"
     fit-margin-top="0"
     fit-margin-left="0"
     fit-margin-right="0"
     fit-margin-bottom="0"
     inkscape:window-width="1193"
     inkscape:window-height="906"
     inkscape:window-x="212"
     inkscape:window-y="71"
     inkscape:window-maximized="0"
     units="px"
     showguides="true"
     inkscape:snap-grids="false"
     inkscape:snap-global="false" />
  <metadata
     id="metadata1053">
    <rdf:RDF>
      <cc:Work
         rdf:about="">
        <dc:format>image/svg+xml</dc:format>
        <dc:type
           rdf:resource="http://purl.org/dc/dcmitype/StillImage" />
        <dc:title></dc:title>
      </cc:Work>
    </rdf:RDF>
  </metadata>
  <g
     inkscape:label="Layer 1"
     inkscape:groupmode="layer"
     id="layer1"
     transform="translate(-72.693771,173.07297)">
    <g
       aria-label="ロ"
       transform="matrix(18.624039,0,0,19.786508,-1313.719,-1795.714)"
       style="font-style:normal;font-weight:normal;font-size:21.39214516px;line-height:100;font-family:sans-serif;letter-spacing:0px;word-spacing:0px;fill:#000000;fill-opacity:1;stroke:none;stroke-width:0.16044109"
       id="text40">
      <g
         aria-label="甲"
         transform="matrix(0.82151725,0,0,0.62260239,29.069678,32.662078)"
         style="font-style:normal;font-weight:normal;font-size:12.76219845px;line-height:100;font-family:sans-serif;letter-spacing:0px;word-spacing:0px;fill:#000000;fill-opacity:1;stroke:none;stroke-width:0.09571651"
         id="text12">
        <path
           d="m 67.550172,95.344066 v -2.261959 h 3.466266 c 0.117676,1.073201 -0.0026,1.552014 -0.121089,2.035062 -1.23529,0.247282 -2.352062,0.32536 -3.345177,0.226897 z m -4.275337,-0.194483 c -0.02589,-0.409073 -0.21945,-0.938482 -0.211906,-2.067476 h 3.504553 v 2.229546 c -1.233734,0.189009 -2.300244,0.07959 -3.292647,-0.16207 z m 3.292647,-5.066593 v 2.105763 h -3.474281 c -0.01609,-0.746893 -0.02424,-1.315666 0.181634,-2.105763 1.044357,-0.01627 1.743718,-0.138089 3.292647,0 z m 4.481167,2.105763 H 67.550172 V 90.08299 c 0.992014,-0.09934 1.880927,-0.309067 3.25436,0 0.246665,0.546513 0.236075,1.301871 0.244117,2.105763 z M 62.31767,89.176874 c -0.24942,0.519927 -0.0714,5.257215 0,7.567984 0.658932,0.606536 0.764873,0.226218 0.957165,0 v -0.689159 c 2.47676,0.256832 2.537217,0.16095 3.292647,0.194483 v 3.970598 c 0.437786,0.82614 0.701974,0.15514 0.98269,-0.19604 v -3.774558 c 1.111278,0.117485 2.16175,-0.1526 3.25436,-0.194483 v 0.650872 c 0.284932,0.125506 0.414049,0.668107 0.995452,0 0.118203,-2.594276 0.55729,-6.822211 0,-7.529697 -0.856808,-0.235369 -9.027275,-0.224303 -9.482314,0 z"
           style="font-style:normal;font-variant:normal;font-weight:normal;font-stretch:normal;font-family:UnJamoBatang;-inkscape-font-specification:UnJamoBatang;stroke-width:0.09571651"
           id="path257"
           inkscape:connector-curvature="0"
           sodipodi:nodetypes="ccccccccccccccccccccccccccccccccc" />
      </g>
      <g
         aria-label="大"
         transform="matrix(0.84766081,0,0,0.6034001,20.087877,32.058563)"
         style="font-style:normal;font-weight:normal;font-size:10.42772865px;line-height:100;font-family:sans-serif;letter-spacing:0px;word-spacing:0px;fill:#000000;fill-opacity:1;stroke:none;stroke-width:0.07820798"
         id="text12-3">
        <path
           d="m 80.127285,86.925529 c 0.442073,-0.36496 0.113295,-0.554169 0,-0.792507 -1.056456,-0.43216 -2.709014,-0.05703 -4.149764,-0.0511 0.165015,-0.817722 0.177581,-1.847631 0.01,-2.910375 -0.206109,-0.369171 -0.509777,-0.237871 -0.834219,0 -0.01043,0.82379 0,1.866563 -0.156416,2.961475 -1.337998,0.02599 -2.794267,0.276682 -3.972964,0 -0.290776,0.264169 -0.246356,0.528338 0,0.792507 1.076375,0.329146 2.484906,0.12818 3.847832,0 -0.427537,1.970841 -1.851323,4.432862 -4.4374,5.559056 0.218982,0.156416 1.074386,-0.134559 1.368392,-0.207052 2.533938,-1.157478 3.256707,-2.776355 3.757238,-4.778479 0.82379,2.367095 1.408498,4.085054 3.410622,5.033977 0.570603,0.04611 1.874008,-0.141967 2.018354,-0.346694 -2.012551,-0.823791 -4.062944,-2.966708 -4.792885,-5.260808 1.274189,0.0059 2.284372,0.05479 3.931254,0 z"
           style="font-style:normal;font-variant:normal;font-weight:normal;font-stretch:normal;font-family:UnJamoBatang;-inkscape-font-specification:UnJamoBatang;stroke-width:0.07820798"
           id="path523"
           inkscape:connector-curvature="0"
           sodipodi:nodetypes="cccccccccccccccc" />
      </g>
    </g>
  </g>
</svg>
