<?xml version="1.0" encoding="UTF-8" standalone="no"?>
<!-- Created with Inkscape (http://www.inkscape.org/) -->

<svg
   xmlns:dc="http://purl.org/dc/elements/1.1/"
   xmlns:cc="http://creativecommons.org/ns#"
   xmlns:rdf="http://www.w3.org/1999/02/22-rdf-syntax-ns#"
   xmlns:svg="http://www.w3.org/2000/svg"
   xmlns="http://www.w3.org/2000/svg"
   xmlns:sodipodi="http://sodipodi.sourceforge.net/DTD/sodipodi-0.dtd"
   xmlns:inkscape="http://www.inkscape.org/namespaces/inkscape"
   width="1000"
   height="1000"
   viewBox="0 0 264.58333 264.58333"
   version="1.1"
   id="svg1056"
   inkscape:version="0.92.5 (2060ec1f9f, 2020-04-08)"
   sodipodi:docname="kan.svg"
   inkscape:export-filename="/home/aahaavis/ot2021/ot-harjoitustyo/src/graphics/kan.png"
   inkscape:export-xdpi="96"
   inkscape:export-ydpi="96">
  <defs
     id="defs1050" />
  <sodipodi:namedview
     id="base"
     pagecolor="#ffffff"
     bordercolor="#666666"
     borderopacity="1.0"
     inkscape:pageopacity="0.0"
     inkscape:pageshadow="2"
     inkscape:zoom="0.19127176"
     inkscape:cx="-110.11143"
     inkscape:cy="391.80548"
     inkscape:document-units="mm"
     inkscape:current-layer="text40"
     showgrid="true"
     fit-margin-top="0"
     fit-margin-left="0"
     fit-margin-right="0"
     fit-margin-bottom="0"
     inkscape:window-width="1194"
     inkscape:window-height="906"
     inkscape:window-x="211"
     inkscape:window-y="27"
     inkscape:window-maximized="0"
     units="px"
     showguides="true"
     inkscape:snap-grids="false"
     inkscape:snap-global="false" />
  <metadata
     id="metadata1053">
    <rdf:RDF>
      <cc:Work
         rdf:about="">
        <dc:format>image/svg+xml</dc:format>
        <dc:type
           rdf:resource="http://purl.org/dc/dcmitype/StillImage" />
        <dc:title></dc:title>
      </cc:Work>
    </rdf:RDF>
  </metadata>
  <g
     inkscape:label="Layer 1"
     inkscape:groupmode="layer"
     id="layer1"
     transform="translate(-72.693771,173.07297)">
    <g
       aria-label="ロ"
       transform="matrix(18.624039,0,0,19.786508,-1313.719,-1795.714)"
       style="font-style:normal;font-weight:normal;font-size:21.39214516px;line-height:100;font-family:sans-serif;letter-spacing:0px;word-spacing:0px;fill:#000000;fill-opacity:1;stroke:none;stroke-width:0.16044109"
       id="text40">
      <g
         aria-label="甲"
         transform="matrix(1.0665733,0,0,0.93758206,11.661044,0.90883677)"
         style="font-style:normal;font-weight:normal;font-size:12.76219845px;line-height:100;font-family:sans-serif;letter-spacing:0px;word-spacing:0px;fill:#000000;fill-opacity:1;stroke:none;stroke-width:0.09571651"
         id="text12">
        <path
           d="m 67.550172,95.344066 v -2.261959 h 3.466266 c 0.117676,1.073201 -0.0026,1.552014 -0.121089,2.035062 -1.23529,0.247282 -2.352062,0.32536 -3.345177,0.226897 z m -4.275337,-0.194483 c -0.02589,-0.409073 -0.21945,-0.938482 -0.211906,-2.067476 h 3.504553 v 2.229546 c -1.233734,0.189009 -2.300244,0.07959 -3.292647,-0.16207 z m 3.292647,-5.066593 v 2.105763 h -3.474281 c -0.01609,-0.746893 -0.02424,-1.315666 0.181634,-2.105763 1.044357,-0.01627 1.743718,-0.138089 3.292647,0 z m 4.481167,2.105763 H 67.550172 V 90.08299 c 0.992014,-0.09934 1.880927,-0.309067 3.25436,0 0.246665,0.546513 0.236075,1.301871 0.244117,2.105763 z M 62.31767,89.176874 c -0.24942,0.519927 -0.0714,5.257215 0,7.567984 0.658932,0.606536 0.764873,0.226218 0.957165,0 v -0.689159 c 2.47676,0.256832 2.537217,0.16095 3.292647,0.194483 v 3.970598 c 0.437786,0.82614 0.701974,0.15514 0.98269,-0.19604 v -3.774558 c 1.111278,0.117485 2.16175,-0.1526 3.25436,-0.194483 v 0.650872 c 0.284932,0.125506 0.414049,0.668107 0.995452,0 0.118203,-2.594276 0.55729,-6.822211 0,-7.529697 -0.856808,-0.235369 -9.027275,-0.224303 -9.482314,0 z"
           style="font-style:normal;font-variant:normal;font-weight:normal;font-stretch:normal;font-family:UnJamoBatang;-inkscape-font-specification:UnJamoBatang;stroke-width:0.09571651"
           id="path257"
           inkscape:connector-curvature="0"
           sodipodi:nodetypes="ccccccccccccccccccccccccccccccccc" />
      </g>
    </g>
  </g>
</svg>
